inDegrees=yes
name=ik_S51_A11_T02
DataType=double
version=3
OpenSimVersion=4.3-2021-08-27-4bc7ad9
endheader
time	pelvis_tilt	pelvis_list	pelvis_rotation	pelvis_tx	pelvis_ty	pelvis_tz	hip_flexion_r	hip_adduction_r	hip_rotation_r	knee_angle_r	knee_angle_r_beta	ankle_angle_r	subtalar_angle_r	mtp_angle_r	hip_flexion_l	hip_adduction_l	hip_rotation_l	knee_angle_l	knee_angle_l_beta	ankle_angle_l	subtalar_angle_l	mtp_angle_l	lumbar_extension	lumbar_bending	lumbar_rotation	arm_flex_r	arm_add_r	arm_rot_r	elbow_flex_r	pro_sup_r	wrist_flex_r	wrist_dev_r	arm_flex_l	arm_add_l	arm_rot_l	elbow_flex_l	pro_sup_l	wrist_flex_l	wrist_dev_l
4.459999999999993	-9.813659235598728	13.59390237194289	61.97878378021357	0	0.9399999999999999	0	29.6340295398995	-9.568590081164734	-8.66257339016804	34.13357804855613	0.5957433224337654	0	0	0	29.6340295398995	-9.568590081164734	-8.66257339016804	34.13357804855613	0.5957433224337654	0	0	0	-5.341620796004662	-16.23479349426956	-10.06448251917491	37.42599880844547	-14.17479649084295	-30.57764509749677	-9.941306577012151	118.8189965757206	0	0	4.985521488159089	-5.494295099292724	-7.80748333401574	5.69174441174903	143.9119363411657	0	0
4.479999999999992	-9.823948181514911	13.54492430534478	62.24708646315963	0	0.9399999999999999	0	29.64579642202453	-9.569696085148511	-8.664774343784741	34.14499352757816	0.5959425601283921	0	0	0	29.64579642202453	-9.569696085148511	-8.664774343784741	34.14499352757816	0.5959425601283921	0	0	0	-5.352410256939057	-16.23810322438945	-10.20776353865529	40.63426127386161	-15.03583702325134	-29.8119793555852	-9.941966506661611	115.4480396732707	0	0	5.027904618715623	-5.556588474644259	-7.935089918646722	5.666803586465018	143.7936281020277	0	0
4.499999999999992	-9.738064387962464	13.42263610081167	62.47700830925088	0	0.9399999999999999	0	29.76919621559263	-9.577890021356072	-8.683488707180429	34.2975651703794	0.5986054376404505	0	0	0	29.76919621559263	-9.577890021356072	-8.683488707180429	34.2975651703794	0.5986054376404505	0	0	0	-5.340992180798366	-16.16532774344292	-10.16965833808598	43.50591432171329	-16.0395140015738	-28.75030471234917	-9.946396703598424	112.807784732686	0	0	5.030791349556686	-5.591216723568023	-7.642640545377825	5.702868075032232	143.3423154647557	0	0
4.519999999999992	-9.759110712321457	13.35408335009744	62.94905418208376	0	0.9399999999999999	0	29.77890894088699	-9.578791343177741	-8.685293545442065	34.30699219850078	0.5987699703198467	0	0	0	29.77890894088699	-9.578791343177741	-8.685293545442065	34.30699219850078	0.5987699703198467	0	0	0	-5.379829955313915	-16.19664124761502	-10.34837264409948	45.15907105880979	-14.95894294520366	-28.68660804014968	-9.834914553053897	108.1008608823063	0	0	5.04733087078569	-5.726979901498851	-7.822509144549129	5.674482199347399	143.3407130909707	0	0
4.539999999999991	17.11704747312054	3.679104394302514	54.97238057537194	0	0.9399999999999999	0	35.50917380708488	-10.01596517088549	-9.642629073596675	40.23821589041169	0.7022893524159859	0	0	0	35.50917380708488	-10.01596517088549	-9.642629073596675	40.23821589041169	0.7022893524159859	0	0	0	-10.58527447021681	10.59047816130007	-2.138151832230663	50.5041463499934	-36.45845033260687	-4.525705416135221	107.8316202920683	-9.968899489233669	0	0	5.003331706728489	-5.843502548767725	-7.438775212922364	5.653835573156569	143.1287186681915	0	0
4.559999999999991	16.95800202803582	3.653990155777796	55.06325637369187	0	0.9399999999999999	0	35.69447179340052	-10.01509044723255	-9.656310984429503	40.46003051101017	0.7061607478744912	0	0	0	35.69447179340052	-10.01509044723255	-9.656310984429503	40.46003051101017	0.7061607478744912	0	0	0	-10.46016253555217	10.47817427757949	-2.257513549573419	54.21988519584433	-35.61589211516187	-2.761541227065616	106.8843962601753	-9.973129241121585	0	0	5.008745682328319	-5.867232510406432	-7.462047804296763	5.681767123901986	142.5879679140158	0	0
4.57999999999999	16.92859721890938	3.694589150436331	55.31430506885247	0	0.9399999999999999	0	35.74189876249226	-10.0149020842237	-9.659438243753868	40.5257154759676	0.7073071667820555	0	0	0	35.74189876249226	-10.0149020842237	-9.659438243753868	40.5257154759676	0.7073071667820555	0	0	0	-10.35690403390888	10.4333675132457	-2.218610978005244	57.60386936618931	-34.91968541726443	-1.714112765450264	107.0735009998962	-9.97676853873843	0	0	4.969716280076009	-5.938817278116638	-7.450022640238045	5.675459966120606	142.8701663808562	0	0
